<svg xmlns="http://www.w3.org/2000/svg" width="455" height="225" viewBox="0 0 455 225">
<g transform="translate(0, 0)">
    <defs>
      <linearGradient id="grad_0_0" x1="0%" y1="0%" x2="0%" y2="100%">
        <stop offset="0%" stop-color="#cd7f32"/>
        <stop offset="50%" stop-color="#cd7f32"/>
        <stop offset="100%" stop-color="#8b4513"/>
      </linearGradient>
      <linearGradient id="shine_0_0" x1="0%" y1="0%" x2="100%" y2="100%">
        <stop offset="0%" stop-color="white" stop-opacity="0.4"/>
        <stop offset="50%" stop-color="white" stop-opacity="0"/>
      </linearGradient>
      <filter id="shadow_0_0" x="-20%" y="-20%" width="140%" height="140%">
        <feDropShadow dx="0" dy="2" stdDeviation="2" flood-color="#000" flood-opacity="0.3"/>
      </filter>
    </defs><rect width="110" height="110" rx="8" fill="#24292e" stroke="#3d3d3d" stroke-width="1"/><g transform="translate(55, 18)" filter="url(#shadow_0_0)">
      <!-- Cup body -->
      <path d="M-12,3 L-10,0 L10,0 L12,3 L10,25 L-10,25 Z" fill="url(#grad_0_0)"/>
      <!-- Cup rim -->
      <ellipse cx="0" cy="1" rx="12" ry="3" fill="url(#grad_0_0)"/>
      <!-- Handles -->
      <path d="M-10,5 C-18,5 -18,18 -10,18" fill="none" stroke="url(#grad_0_0)" stroke-width="2.5"/>
      <path d="M10,5 C18,5 18,18 10,18" fill="none" stroke="url(#grad_0_0)" stroke-width="2.5"/>
      <!-- Stem -->
      <rect x="-3" y="25" width="6" height="6" fill="url(#grad_0_0)"/>
      <!-- Base -->
      <rect x="-10" y="31" width="20" height="4" rx="1" fill="url(#grad_0_0)"/>
    </g><text x="55" y="90" fill="#ffffff" font-family="Segoe UI,Arial,sans-serif" font-size="11" font-weight="600" text-anchor="middle">Stars</text><text x="55" y="104" fill="#9e9e9e" font-family="Segoe UI,Arial,sans-serif" font-size="10" text-anchor="middle">28</text></g><g transform="translate(115, 0)">
    <defs>
      <linearGradient id="grad_115_0" x1="0%" y1="0%" x2="0%" y2="100%">
        <stop offset="0%" stop-color="#f0c14b"/>
        <stop offset="50%" stop-color="#f0c14b"/>
        <stop offset="100%" stop-color="#c9a227"/>
      </linearGradient>
      <linearGradient id="shine_115_0" x1="0%" y1="0%" x2="100%" y2="100%">
        <stop offset="0%" stop-color="white" stop-opacity="0.4"/>
        <stop offset="50%" stop-color="white" stop-opacity="0"/>
      </linearGradient>
      <filter id="shadow_115_0" x="-20%" y="-20%" width="140%" height="140%">
        <feDropShadow dx="0" dy="2" stdDeviation="2" flood-color="#000" flood-opacity="0.3"/>
      </filter>
    </defs><rect width="110" height="110" rx="8" fill="#24292e" stroke="#f0c14b" stroke-width="2"/><g transform="translate(55, 15)" filter="url(#shadow_115_0)">
      <!-- Cup body -->
      <path d="M-15,5 L-13,0 L13,0 L15,5 L12,28 L-12,28 Z" fill="url(#grad_115_0)"/>
      <!-- Cup rim -->
      <ellipse cx="0" cy="2" rx="15" ry="4" fill="url(#grad_115_0)"/>
      <ellipse cx="0" cy="2" rx="13" ry="3" fill="url(#shine_115_0)"/>
      <!-- Handles -->
      <path d="M-13,7 C-22,7 -22,22 -12,22" fill="none" stroke="url(#grad_115_0)" stroke-width="3"/>
      <path d="M13,7 C22,7 22,22 12,22" fill="none" stroke="url(#grad_115_0)" stroke-width="3"/>
      <!-- Stem -->
      <rect x="-4" y="28" width="8" height="7" fill="url(#grad_115_0)"/>
      <!-- Base -->
      <rect x="-14" y="35" width="28" height="3" rx="1" fill="url(#grad_115_0)"/>
      <rect x="-12" y="38" width="24" height="5" rx="1" fill="url(#grad_115_0)"/>
    </g><text x="55" y="90" fill="#ffffff" font-family="Segoe UI,Arial,sans-serif" font-size="11" font-weight="600" text-anchor="middle">Commits</text><text x="55" y="104" fill="#9e9e9e" font-family="Segoe UI,Arial,sans-serif" font-size="10" text-anchor="middle">896</text></g><g transform="translate(230, 0)">
    <defs>
      <linearGradient id="grad_230_0" x1="0%" y1="0%" x2="0%" y2="100%">
        <stop offset="0%" stop-color="#cd7f32"/>
        <stop offset="50%" stop-color="#cd7f32"/>
        <stop offset="100%" stop-color="#8b4513"/>
      </linearGradient>
      <linearGradient id="shine_230_0" x1="0%" y1="0%" x2="100%" y2="100%">
        <stop offset="0%" stop-color="white" stop-opacity="0.4"/>
        <stop offset="50%" stop-color="white" stop-opacity="0"/>
      </linearGradient>
      <filter id="shadow_230_0" x="-20%" y="-20%" width="140%" height="140%">
        <feDropShadow dx="0" dy="2" stdDeviation="2" flood-color="#000" flood-opacity="0.3"/>
      </filter>
    </defs><rect width="110" height="110" rx="8" fill="#24292e" stroke="#3d3d3d" stroke-width="1"/><g transform="translate(55, 18)" filter="url(#shadow_230_0)">
      <!-- Cup body -->
      <path d="M-12,3 L-10,0 L10,0 L12,3 L10,25 L-10,25 Z" fill="url(#grad_230_0)"/>
      <!-- Cup rim -->
      <ellipse cx="0" cy="1" rx="12" ry="3" fill="url(#grad_230_0)"/>
      <!-- Handles -->
      <path d="M-10,5 C-18,5 -18,18 -10,18" fill="none" stroke="url(#grad_230_0)" stroke-width="2.5"/>
      <path d="M10,5 C18,5 18,18 10,18" fill="none" stroke="url(#grad_230_0)" stroke-width="2.5"/>
      <!-- Stem -->
      <rect x="-3" y="25" width="6" height="6" fill="url(#grad_230_0)"/>
      <!-- Base -->
      <rect x="-10" y="31" width="20" height="4" rx="1" fill="url(#grad_230_0)"/>
    </g><text x="55" y="90" fill="#ffffff" font-family="Segoe UI,Arial,sans-serif" font-size="11" font-weight="600" text-anchor="middle">Followers</text><text x="55" y="104" fill="#9e9e9e" font-family="Segoe UI,Arial,sans-serif" font-size="10" text-anchor="middle">24</text></g><g transform="translate(345, 0)">
    <defs>
      <linearGradient id="grad_345_0" x1="0%" y1="0%" x2="0%" y2="100%">
        <stop offset="0%" stop-color="#cd7f32"/>
        <stop offset="50%" stop-color="#cd7f32"/>
        <stop offset="100%" stop-color="#8b4513"/>
      </linearGradient>
      <linearGradient id="shine_345_0" x1="0%" y1="0%" x2="100%" y2="100%">
        <stop offset="0%" stop-color="white" stop-opacity="0.4"/>
        <stop offset="50%" stop-color="white" stop-opacity="0"/>
      </linearGradient>
      <filter id="shadow_345_0" x="-20%" y="-20%" width="140%" height="140%">
        <feDropShadow dx="0" dy="2" stdDeviation="2" flood-color="#000" flood-opacity="0.3"/>
      </filter>
    </defs><rect width="110" height="110" rx="8" fill="#24292e" stroke="#3d3d3d" stroke-width="1"/><g transform="translate(55, 18)" filter="url(#shadow_345_0)">
      <!-- Cup body -->
      <path d="M-12,3 L-10,0 L10,0 L12,3 L10,25 L-10,25 Z" fill="url(#grad_345_0)"/>
      <!-- Cup rim -->
      <ellipse cx="0" cy="1" rx="12" ry="3" fill="url(#grad_345_0)"/>
      <!-- Handles -->
      <path d="M-10,5 C-18,5 -18,18 -10,18" fill="none" stroke="url(#grad_345_0)" stroke-width="2.5"/>
      <path d="M10,5 C18,5 18,18 10,18" fill="none" stroke="url(#grad_345_0)" stroke-width="2.5"/>
      <!-- Stem -->
      <rect x="-3" y="25" width="6" height="6" fill="url(#grad_345_0)"/>
      <!-- Base -->
      <rect x="-10" y="31" width="20" height="4" rx="1" fill="url(#grad_345_0)"/>
    </g><text x="55" y="90" fill="#ffffff" font-family="Segoe UI,Arial,sans-serif" font-size="11" font-weight="600" text-anchor="middle">Repositories</text><text x="55" y="104" fill="#9e9e9e" font-family="Segoe UI,Arial,sans-serif" font-size="10" text-anchor="middle">10</text></g><g transform="translate(0, 115)">
    <defs>
      <linearGradient id="grad_0_115" x1="0%" y1="0%" x2="0%" y2="100%">
        <stop offset="0%" stop-color="#555"/>
        <stop offset="50%" stop-color="#555"/>
        <stop offset="100%" stop-color="#333"/>
      </linearGradient>
      <linearGradient id="shine_0_115" x1="0%" y1="0%" x2="100%" y2="100%">
        <stop offset="0%" stop-color="white" stop-opacity="0.4"/>
        <stop offset="50%" stop-color="white" stop-opacity="0"/>
      </linearGradient>
      <filter id="shadow_0_115" x="-20%" y="-20%" width="140%" height="140%">
        <feDropShadow dx="0" dy="2" stdDeviation="2" flood-color="#000" flood-opacity="0.3"/>
      </filter>
    </defs><rect width="110" height="110" rx="8" fill="#24292e" stroke="#3d3d3d" stroke-width="1"/><g transform="translate(55, 23)" filter="url(#shadow_0_115)">
      <!-- Ribbon -->
      <path d="M-8,-5 L-5,15 L0,10 L5,15 L8,-5" fill="#555"/>
      <!-- Medal circle -->
      <circle cx="0" cy="22" r="16" fill="url(#grad_0_115)" stroke="#3d3d3d" stroke-width="2"/>
      <circle cx="0" cy="22" r="12" fill="#24292e" stroke="#555" stroke-width="1"/>
    </g><text x="55" y="90" fill="#ffffff" font-family="Segoe UI,Arial,sans-serif" font-size="11" font-weight="600" text-anchor="middle">PullRequest</text><text x="55" y="104" fill="#9e9e9e" font-family="Segoe UI,Arial,sans-serif" font-size="10" text-anchor="middle">6</text></g><g transform="translate(115, 115)">
    <defs>
      <linearGradient id="grad_115_115" x1="0%" y1="0%" x2="0%" y2="100%">
        <stop offset="0%" stop-color="#555"/>
        <stop offset="50%" stop-color="#555"/>
        <stop offset="100%" stop-color="#333"/>
      </linearGradient>
      <linearGradient id="shine_115_115" x1="0%" y1="0%" x2="100%" y2="100%">
        <stop offset="0%" stop-color="white" stop-opacity="0.4"/>
        <stop offset="50%" stop-color="white" stop-opacity="0"/>
      </linearGradient>
      <filter id="shadow_115_115" x="-20%" y="-20%" width="140%" height="140%">
        <feDropShadow dx="0" dy="2" stdDeviation="2" flood-color="#000" flood-opacity="0.3"/>
      </filter>
    </defs><rect width="110" height="110" rx="8" fill="#24292e" stroke="#3d3d3d" stroke-width="1"/><g transform="translate(55, 23)" filter="url(#shadow_115_115)">
      <!-- Ribbon -->
      <path d="M-8,-5 L-5,15 L0,10 L5,15 L8,-5" fill="#555"/>
      <!-- Medal circle -->
      <circle cx="0" cy="22" r="16" fill="url(#grad_115_115)" stroke="#3d3d3d" stroke-width="2"/>
      <circle cx="0" cy="22" r="12" fill="#24292e" stroke="#555" stroke-width="1"/>
    </g><text x="55" y="90" fill="#ffffff" font-family="Segoe UI,Arial,sans-serif" font-size="11" font-weight="600" text-anchor="middle">Issues</text><text x="55" y="104" fill="#9e9e9e" font-family="Segoe UI,Arial,sans-serif" font-size="10" text-anchor="middle">2</text></g><g transform="translate(230, 115)">
    <defs>
      <linearGradient id="grad_230_115" x1="0%" y1="0%" x2="0%" y2="100%">
        <stop offset="0%" stop-color="#555"/>
        <stop offset="50%" stop-color="#555"/>
        <stop offset="100%" stop-color="#333"/>
      </linearGradient>
      <linearGradient id="shine_230_115" x1="0%" y1="0%" x2="100%" y2="100%">
        <stop offset="0%" stop-color="white" stop-opacity="0.4"/>
        <stop offset="50%" stop-color="white" stop-opacity="0"/>
      </linearGradient>
      <filter id="shadow_230_115" x="-20%" y="-20%" width="140%" height="140%">
        <feDropShadow dx="0" dy="2" stdDeviation="2" flood-color="#000" flood-opacity="0.3"/>
      </filter>
    </defs><rect width="110" height="110" rx="8" fill="#24292e" stroke="#3d3d3d" stroke-width="1"/><g transform="translate(55, 23)" filter="url(#shadow_230_115)">
      <!-- Ribbon -->
      <path d="M-8,-5 L-5,15 L0,10 L5,15 L8,-5" fill="#555"/>
      <!-- Medal circle -->
      <circle cx="0" cy="22" r="16" fill="url(#grad_230_115)" stroke="#3d3d3d" stroke-width="2"/>
      <circle cx="0" cy="22" r="12" fill="#24292e" stroke="#555" stroke-width="1"/>
    </g><text x="55" y="90" fill="#ffffff" font-family="Segoe UI,Arial,sans-serif" font-size="11" font-weight="600" text-anchor="middle">Reviews</text><text x="55" y="104" fill="#9e9e9e" font-family="Segoe UI,Arial,sans-serif" font-size="10" text-anchor="middle">5</text></g><g transform="translate(345, 115)">
    <defs>
      <linearGradient id="grad_345_115" x1="0%" y1="0%" x2="0%" y2="100%">
        <stop offset="0%" stop-color="#f0c14b"/>
        <stop offset="50%" stop-color="#f0c14b"/>
        <stop offset="100%" stop-color="#c9a227"/>
      </linearGradient>
      <linearGradient id="shine_345_115" x1="0%" y1="0%" x2="100%" y2="100%">
        <stop offset="0%" stop-color="white" stop-opacity="0.4"/>
        <stop offset="50%" stop-color="white" stop-opacity="0"/>
      </linearGradient>
      <filter id="shadow_345_115" x="-20%" y="-20%" width="140%" height="140%">
        <feDropShadow dx="0" dy="2" stdDeviation="2" flood-color="#000" flood-opacity="0.3"/>
      </filter>
    </defs><rect width="110" height="110" rx="8" fill="#24292e" stroke="#f0c14b" stroke-width="2"/><g transform="translate(55, 15)" filter="url(#shadow_345_115)">
      <!-- Cup body -->
      <path d="M-15,5 L-13,0 L13,0 L15,5 L12,28 L-12,28 Z" fill="url(#grad_345_115)"/>
      <!-- Cup rim -->
      <ellipse cx="0" cy="2" rx="15" ry="4" fill="url(#grad_345_115)"/>
      <ellipse cx="0" cy="2" rx="13" ry="3" fill="url(#shine_345_115)"/>
      <!-- Handles -->
      <path d="M-13,7 C-22,7 -22,22 -12,22" fill="none" stroke="url(#grad_345_115)" stroke-width="3"/>
      <path d="M13,7 C22,7 22,22 12,22" fill="none" stroke="url(#grad_345_115)" stroke-width="3"/>
      <!-- Stem -->
      <rect x="-4" y="28" width="8" height="7" fill="url(#grad_345_115)"/>
      <!-- Base -->
      <rect x="-14" y="35" width="28" height="3" rx="1" fill="url(#grad_345_115)"/>
      <rect x="-12" y="38" width="24" height="5" rx="1" fill="url(#grad_345_115)"/>
    </g><text x="55" y="90" fill="#ffffff" font-family="Segoe UI,Arial,sans-serif" font-size="11" font-weight="600" text-anchor="middle">Experience</text><text x="55" y="104" fill="#9e9e9e" font-family="Segoe UI,Arial,sans-serif" font-size="10" text-anchor="middle">9</text></g></svg>